<svg width="49" height="48" viewBox="0 0 49 48" fill="none" xmlns="http://www.w3.org/2000/svg">
<path d="M40.6667 8H8.66675C6.46075 8 4.66675 9.794 4.66675 12V36C4.66675 38.206 6.46075 40 8.66675 40H40.6667C42.8727 40 44.6667 38.206 44.6667 36V12C44.6667 9.794 42.8727 8 40.6667 8ZM40.6667 12V13.022L24.6667 25.468L8.66675 13.024V12H40.6667ZM8.66675 36V18.088L23.4387 29.578C23.789 29.8531 24.2214 30.0026 24.6667 30.0026C25.1121 30.0026 25.5445 29.8531 25.8947 29.578L40.6667 18.088L40.6707 36H8.66675Z" fill="#2CA249"/>
</svg>
