<svg width="49" height="48" viewBox="0 0 49 48" fill="none" xmlns="http://www.w3.org/2000/svg">
<path d="M24.3336 28C28.7456 28 32.3336 24.412 32.3336 20C32.3336 15.588 28.7456 12 24.3336 12C19.9216 12 16.3336 15.588 16.3336 20C16.3336 24.412 19.9216 28 24.3336 28ZM24.3336 16C26.5396 16 28.3336 17.794 28.3336 20C28.3336 22.206 26.5396 24 24.3336 24C22.1276 24 20.3336 22.206 20.3336 20C20.3336 17.794 22.1276 16 24.3336 16ZM23.1737 43.628C23.5122 43.8697 23.9177 43.9997 24.3337 43.9997C24.7496 43.9997 25.1552 43.8697 25.4937 43.628C26.1017 43.198 40.3917 32.88 40.3337 20C40.3337 11.178 33.1557 4 24.3337 4C15.5117 4 8.33367 11.178 8.33367 19.99C8.27567 32.88 22.5657 43.198 23.1737 43.628ZM24.3337 8C30.9517 8 36.3337 13.382 36.3337 20.01C36.3757 28.886 27.5577 36.856 24.3337 39.47C21.1117 36.854 12.2917 28.882 12.3337 20C12.3337 13.382 17.7157 8 24.3337 8Z" fill="#2CA249"/>
<path d="M24.3336 28C28.7456 28 32.3336 24.412 32.3336 20C32.3336 15.588 28.7456 12 24.3336 12C19.9216 12 16.3336 15.588 16.3336 20C16.3336 24.412 19.9216 28 24.3336 28ZM24.3336 16C26.5396 16 28.3336 17.794 28.3336 20C28.3336 22.206 26.5396 24 24.3336 24C22.1276 24 20.3336 22.206 20.3336 20C20.3336 17.794 22.1276 16 24.3336 16ZM23.1737 43.628C23.5122 43.8697 23.9177 43.9997 24.3337 43.9997C24.7496 43.9997 25.1552 43.8697 25.4937 43.628C26.1017 43.198 40.3917 32.88 40.3337 20C40.3337 11.178 33.1557 4 24.3337 4C15.5117 4 8.33367 11.178 8.33367 19.99C8.27567 32.88 22.5657 43.198 23.1737 43.628ZM24.3337 8C30.9517 8 36.3337 13.382 36.3337 20.01C36.3757 28.886 27.5577 36.856 24.3337 39.47C21.1117 36.854 12.2917 28.882 12.3337 20C12.3337 13.382 17.7157 8 24.3337 8Z" fill="#2CA249"/>
</svg>
